
<svg width="57px" height="55px" viewBox="0 0 57 55" version="1.1" xmlns="http://www.w3.org/2000/svg" xmlns:xlink="http://www.w3.org/1999/xlink">
    <!-- Generator: Sketch 3.8.1 (29687) - http://www.bohemiancoding.com/sketch -->
    <desc>Created with Sketch.</desc>
    <defs></defs>
    <g id="banjo" stroke="none" stroke-width="1" fill="none" fill-rule="evenodd">
        <g>
            <ellipse id="Oval" stroke="#BDC3C7" stroke-width="2" fill="#ECF0F1" cx="16.4705882" cy="38.3298039" rx="13.7254902" ry="13.7254902"></ellipse>
            <path d="M16.4705882,25.5193464 C15.9654902,25.5193464 15.5555556,25.1103268 15.5555556,24.6043137 L15.5555556,22.7742483 C15.5555556,22.2682353 15.9654902,21.8592157 16.4705882,21.8592157 C16.9756863,21.8592157 17.3856209,22.2682353 17.3856209,22.7742483 L17.3856209,24.6043137 C17.3856209,25.1103268 16.9756863,25.5193464 16.4705882,25.5193464 L16.4705882,25.5193464 L16.4705882,25.5193464 Z" id="Shape" fill="#556080"></path>
            <path d="M16.4705882,54.8003922 C15.9654902,54.8003922 15.5555556,54.3913725 15.5555556,53.8853595 L15.5555556,52.0552941 C15.5555556,51.5492811 15.9654902,51.1402615 16.4705882,51.1402615 C16.9756863,51.1402615 17.3856209,51.5492811 17.3856209,52.0552941 L17.3856209,53.8853595 C17.3856209,54.3913725 16.9756863,54.8003922 16.4705882,54.8003922 L16.4705882,54.8003922 L16.4705882,54.8003922 Z" id="Shape" fill="#556080"></path>
            <path d="M32.0261438,39.2448366 L30.1960784,39.2448366 C29.6909804,39.2448366 29.2810458,38.835817 29.2810458,38.3298039 C29.2810458,37.8237909 29.6909804,37.4147713 30.1960784,37.4147713 L32.0261438,37.4147713 C32.5312419,37.4147713 32.9411765,37.8237909 32.9411765,38.3298039 C32.9411765,38.835817 32.5312419,39.2448366 32.0261438,39.2448366 L32.0261438,39.2448366 L32.0261438,39.2448366 Z" id="Shape" fill="#556080"></path>
            <path d="M2.74509804,39.2448366 L0.915032679,39.2448366 C0.40993464,39.2448366 0,38.835817 0,38.3298039 C0,37.8237909 0.40993464,37.4147713 0.915032679,37.4147713 L2.74509804,37.4147713 C3.25019608,37.4147713 3.66013072,37.8237909 3.66013072,38.3298039 C3.66013072,38.835817 3.25019608,39.2448366 2.74509804,39.2448366 L2.74509804,39.2448366 L2.74509804,39.2448366 Z" id="Shape" fill="#556080"></path>
            <path d="M5.47098039,50.2444444 C5.23673203,50.2444444 5.00248366,50.1547713 4.82405228,49.9763399 C4.46627451,49.6185621 4.46627451,49.0402615 4.82405228,48.6824836 L6.11882353,47.3886275 C6.4766013,47.0308497 7.05490196,47.0308497 7.41267973,47.3886275 C7.77045752,47.7464052 7.77045752,48.3247059 7.41267973,48.6824836 L6.1179085,49.9763399 C5.93947713,50.1547713 5.70522875,50.2444444 5.47098039,50.2444444 L5.47098039,50.2444444 L5.47098039,50.2444444 Z" id="Shape" fill="#556080"></path>
            <path d="M27.4701961,50.2444444 C27.2359477,50.2444444 27.0016993,50.1547713 26.8232679,49.9763399 L25.5284968,48.6824836 C25.1707189,48.3247059 25.1707189,47.7464052 25.5284968,47.3886275 C25.8853595,47.0308497 26.4645752,47.0308497 26.8223529,47.3886275 L28.1171242,48.6824836 C28.474902,49.0402615 28.474902,49.6185621 28.1171242,49.9763399 C27.9386928,50.1547713 27.7044444,50.2444444 27.4701961,50.2444444 L27.4701961,50.2444444 L27.4701961,50.2444444 Z" id="Shape" fill="#556080"></path>
            <path d="M6.76575164,29.54 C6.53150326,29.54 6.2972549,29.4503268 6.11882353,29.2718954 L4.82405228,27.9780392 C4.46627451,27.6202615 4.46627451,27.0419608 4.82405228,26.684183 C5.18091503,26.3264052 5.76013072,26.3264052 6.1179085,26.684183 L7.41267973,27.9780392 C7.77045752,28.335817 7.77045752,28.9141176 7.41267973,29.2718954 C7.23424836,29.4503268 6.99908497,29.54 6.76575164,29.54 L6.76575164,29.54 L6.76575164,29.54 Z" id="Shape" fill="#556080"></path>
            <ellipse id="Oval" fill="#556080" cx="16.8082353" cy="38.526536" rx="6.6779085" ry="6.6779085"></ellipse>
            <path d="M44.9802615,3.27764706 C44.746013,3.27764706 44.5117647,3.18797385 44.3333333,3.00954248 L43.0394772,1.71568627 C42.6816993,1.3579085 42.6816993,0.779607843 43.0394772,0.421830066 C43.3972549,0.0640522875 43.9755556,0.0640522875 44.3333333,0.421830066 L45.6271895,1.71568627 C45.9849674,2.07346405 45.9849674,2.65176471 45.6271895,3.00954248 C45.4487581,3.18797385 45.2145098,3.27764706 44.9802615,3.27764706 L44.9802615,3.27764706 L44.9802615,3.27764706 Z" id="Shape" fill="#B9A46D"></path>
            <path d="M42.392549,5.86627451 C42.1583007,5.86627451 41.9240523,5.7766013 41.7447059,5.59816993 L40.4508497,4.3033987 C40.093987,3.94562091 40.093987,3.36640523 40.4508497,3.00954248 C40.8086275,2.65176471 41.3878431,2.65176471 41.7456209,3.00954248 L43.0394772,4.30431373 C43.3972549,4.6620915 43.3963399,5.24130719 43.0394772,5.59816993 C42.8610458,5.7766013 42.6267973,5.86627451 42.392549,5.86627451 L42.392549,5.86627451 L42.392549,5.86627451 Z" id="Shape" fill="#B9A46D"></path>
            <path d="M51.4513725,14.924183 C51.2171242,14.924183 50.9828758,14.8345098 50.8044444,14.6560784 L49.5096732,13.3622223 C49.1518954,13.0053595 49.1518954,12.4261438 49.5096732,12.068366 C49.867451,11.7105882 50.4457517,11.7105882 50.8035294,12.068366 L52.0983007,13.3622223 C52.4560784,13.719085 52.4560784,14.2983007 52.0983007,14.6560784 C51.9189542,14.8354248 51.6856209,14.924183 51.4513725,14.924183 L51.4513725,14.924183 L51.4513725,14.924183 Z" id="Shape" fill="#B9A46D"></path>
            <path d="M54.039085,12.3355556 C53.8048366,12.3355556 53.5705882,12.2458824 53.3921569,12.067451 L52.0983007,10.7735948 C51.7405228,10.415817 51.7405228,9.83751634 52.0983007,9.47973856 C52.4560784,9.12196078 53.0343791,9.12196078 53.3921569,9.47973856 L54.686013,10.7735948 C55.0437909,11.1313725 55.0437909,11.7096732 54.686013,12.067451 C54.5075817,12.2458824 54.2733333,12.3355556 54.039085,12.3355556 L54.039085,12.3355556 L54.039085,12.3355556 Z" id="Shape" fill="#B9A46D"></path>
            <path d="M52.8294118,3.74156863 L51.3653595,2.27751634 C49.6258824,0.538039216 46.8048366,0.538039216 45.0644444,2.27751634 L41.7401307,5.60183007 C41.2075817,6.13437909 41.1307189,7.0366013 41.6760784,7.55542483 C42.2379085,8.08888889 42.2461438,8.97738562 41.7016993,9.52183007 L25.4077125,25.8176471 C24.8312419,26.3941176 24.8843137,27.3301961 25.5056209,27.8581699 C26.126013,28.3861438 26.6988235,28.9690196 27.2167321,29.5985621 C27.7410458,30.2363399 28.6899346,30.2994772 29.2737255,29.7156863 L45.585098,13.4043137 C46.1213072,12.8681046 46.9905882,12.8681046 47.5258824,13.4043137 L47.5258824,13.4043137 C48.0620915,13.9405228 48.9313725,13.9405228 49.4666667,13.4043137 L52.8284968,10.0424837 C54.5698039,8.3020915 54.5698039,5.48104576 52.8294118,3.74156863 L52.8294118,3.74156863 L52.8294118,3.74156863 Z" id="Shape" fill="#9B431C"></path>
            <g id="Group" transform="translate(6.405228, 8.235294)" fill="#CBB292">
                <path d="M35.5554248,0.732026144 C35.1976471,0.374248366 34.6193464,0.374248366 34.2615686,0.732026144 L1.08156863,34.2597385 C0.72379085,34.6175164 0.72379085,35.195817 1.08156863,35.5535948 C1.26,35.7320262 1.49424836,35.8216993 1.72849674,35.8216993 C1.9627451,35.8216993 2.19699346,35.7320262 2.37542483,35.5535948 L35.5554248,2.02588235 C35.9122875,1.66810458 35.9122875,1.08888889 35.5554248,0.732026144 L35.5554248,0.732026144 L35.5554248,0.732026144 Z" id="Shape"></path>
                <path d="M38.3005228,1.86849674 C37.9427451,1.51071895 37.3644444,1.51071895 37.0066667,1.86849674 L3.02326797,36.2005228 C2.6654902,36.5583007 2.6654902,37.1366013 3.02326797,37.4943791 C3.20169934,37.6728105 3.43594772,37.7624836 3.67019608,37.7624836 C3.90444444,37.7624836 4.13869281,37.6728105 4.31712419,37.4943791 L38.3005228,3.16235294 C38.6573856,2.80457517 38.6573856,2.22627451 38.3005228,1.86849674 L38.3005228,1.86849674 L38.3005228,1.86849674 Z" id="Shape"></path>
                <path d="M39.4369934,4.61359477 C39.0792157,4.25581699 38.500915,4.25581699 38.1431373,4.61359477 L4.96405228,38.1422223 C4.60627451,38.5 4.60627451,39.0783007 4.96405228,39.4360784 C5.14248366,39.6145098 5.37673203,39.704183 5.61098039,39.704183 C5.84522875,39.704183 6.07947713,39.6145098 6.2579085,39.4360784 L39.4369934,5.90745098 C39.7938562,5.54967321 39.7938562,4.97137255 39.4369934,4.61359477 L39.4369934,4.61359477 L39.4369934,4.61359477 Z" id="Shape"></path>
            </g>
        </g>
    </g>
</svg>