
<svg width="51px" height="46px" viewBox="0 0 51 46" version="1.1" xmlns="http://www.w3.org/2000/svg" xmlns:xlink="http://www.w3.org/1999/xlink">
    <!-- Generator: Sketch 3.8.1 (29687) - http://www.bohemiancoding.com/sketch -->
    <desc>Created with Sketch.</desc>
    <defs></defs>
    <g id="faint" stroke="none" stroke-width="1" fill="none" fill-rule="evenodd" >
        <g id="Group">
            <path d="M25.337931,45.6887931 C35.0327586,45.8232759 40.4413793,41.912069 43.4482759,37.7672414 C46.5543103,33.4862069 47.5551724,28.0405172 46.5922414,22.8336207 C43.1068966,4.00172414 25.337931,4.16034483 25.337931,4.16034483 C25.337931,4.16034483 7.56982759,4.00172414 4.08448276,22.8344828 C3.12068966,28.0413793 4.12241379,33.4862069 7.22844828,37.7681034 C10.2344828,41.912069 15.6431034,45.8232759 25.337931,45.6887931 L25.337931,45.6887931 Z" id="Shape" fill="#FDC794"></path>
            <path d="M3.87844828,24.2456897 C3.48793103,23.8758621 3.02931034,23.6534483 2.53448276,23.6534483 C1.13448276,23.6534483 0,25.3612069 0,27.4672414 C0,29.5732759 1.13448276,31.2810345 2.53362069,31.2810345 C3.12586207,31.2810345 3.6637931,30.962069 4.09482759,30.45 C3.70431034,28.4224138 3.6362069,26.3258621 3.87844828,24.2456897 L3.87844828,24.2456897 Z" id="Shape" fill="#F9A671"></path>
            <path d="M49.8474138,20.9465517 C49.362069,18.8974138 47.8646552,17.4991379 46.5034483,17.8241379 C46.0801724,17.925 45.7293103,18.1948276 45.4474138,18.5612069 C45.9112069,19.8672414 46.3043103,21.2801724 46.5922414,22.8344828 C46.7258621,23.5560345 46.8172414,24.2818966 46.875,25.0086207 C47.3232759,25.2534483 47.7991379,25.3551724 48.2612069,25.2448276 C49.6224138,24.9198276 50.3327586,22.9956897 49.8474138,20.9465517 L49.8474138,20.9465517 Z" id="Shape" fill="#F9A671"></path>
            <path d="M11.9827586,12.9301724 C11.762069,12.9301724 11.5413793,12.8456897 11.3732759,12.6775862 L7.06293103,8.36724138 C6.72586207,8.03017241 6.72586207,7.48534483 7.06293103,7.14827586 C7.4,6.8112069 7.94482759,6.8112069 8.28189655,7.14827586 L12.5922414,11.4586207 C12.9293103,11.7956897 12.9293103,12.3405172 12.5922414,12.6775862 C12.4241379,12.8456897 12.2034483,12.9301724 11.9827586,12.9301724 L11.9827586,12.9301724 Z" id="Shape" fill="#5E5F62"></path>
            <path d="M14.5698276,10.3439655 C14.2534483,10.3439655 13.9491379,10.1698276 13.7974138,9.86724138 L11.2112069,4.69482759 C10.9982759,4.26896552 11.1706897,3.75086207 11.5965517,3.53793103 C12.0232759,3.32672414 12.5396552,3.49741379 12.7534483,3.92327586 L15.3396552,9.09568966 C15.5525862,9.52155172 15.3801724,10.0396552 14.9543103,10.2525862 C14.8310345,10.3137931 14.7,10.3439655 14.5698276,10.3439655 L14.5698276,10.3439655 Z" id="Shape" fill="#5E5F62"></path>
            <path d="M18.0172414,8.61982759 C17.6560345,8.61982759 17.3198276,8.39137931 17.2,8.03017241 L15.4758621,2.85775862 C15.325,2.40603448 15.5689655,1.91724138 16.0206897,1.76724138 C16.4767241,1.61551724 16.9603448,1.86034483 17.1112069,2.31206897 L18.8353448,7.48448276 C18.9862069,7.9362069 18.7422414,8.425 18.2905172,8.575 C18.1991379,8.60517241 18.1077586,8.61982759 18.0172414,8.61982759 L18.0172414,8.61982759 Z" id="Shape" fill="#5E5F62"></path>
            <path d="M22.3267241,7.75775862 C21.912931,7.75775862 21.5474138,7.45862069 21.4775862,7.03706897 L20.6155172,1.86465517 C20.537069,1.39568966 20.8543103,0.950862069 21.3241379,0.873275862 C21.7939655,0.788793103 22.237931,1.11206897 22.3155172,1.58189655 L23.1775862,6.75431034 C23.2560345,7.22327586 22.9387931,7.66810345 22.4689655,7.74568966 C22.4215517,7.75431034 22.3741379,7.75775862 22.3267241,7.75775862 L22.3267241,7.75775862 Z" id="Shape" fill="#5E5F62"></path>
            <path d="M25.7758621,7.75775862 C25.2991379,7.75775862 24.9137931,7.37241379 24.9137931,6.89568966 L24.9137931,1.72327586 C24.9137931,1.24655172 25.2991379,0.861206897 25.7758621,0.861206897 C26.2525862,0.861206897 26.637931,1.24655172 26.637931,1.72327586 L26.637931,6.89568966 C26.637931,7.37155172 26.2525862,7.75775862 25.7758621,7.75775862 L25.7758621,7.75775862 Z" id="Shape" fill="#5E5F62"></path>
            <path d="M29.2241379,7.75775862 C29.1344828,7.75775862 29.0422414,7.74310345 28.9517241,7.71293103 C28.5008621,7.56293103 28.2560345,7.075 28.4068966,6.62241379 L30.1310345,1.45 C30.2818966,0.999137931 30.7663793,0.753448276 31.2215517,0.905172414 C31.6724138,1.05517241 31.9172414,1.54310345 31.7663793,1.99568966 L30.0422414,7.16810345 C29.9215517,7.52931034 29.5853448,7.75775862 29.2241379,7.75775862 L29.2241379,7.75775862 Z" id="Shape" fill="#5E5F62"></path>
            <path d="M32.6724138,8.61982759 C32.5827586,8.61982759 32.4905172,8.60517241 32.4,8.575 C31.9491379,8.425 31.7043103,7.93706897 31.8551724,7.48448276 L33.5793103,2.31206897 C33.7301724,1.8612069 34.2137931,1.61551724 34.6698276,1.76724138 C35.1206897,1.91724138 35.3655172,2.40517241 35.2146552,2.85775862 L33.4905172,8.03017241 C33.3698276,8.39137931 33.0336207,8.61982759 32.6724138,8.61982759 L32.6724138,8.61982759 Z" id="Shape" fill="#5E5F62"></path>
            <path d="M35.2577586,10.3439655 C35.1284483,10.3439655 34.9965517,10.3146552 34.8732759,10.2534483 C34.4474138,10.0405172 34.275,9.52241379 34.487931,9.09655172 L37.0741379,3.92413793 C37.287931,3.49827586 37.8051724,3.32758621 38.2310345,3.5387931 C38.6568966,3.75172414 38.8293103,4.26982759 38.6163793,4.69568966 L36.0301724,9.86810345 C35.8784483,10.1689655 35.575,10.3439655 35.2577586,10.3439655 L35.2577586,10.3439655 Z" id="Shape" fill="#5E5F62"></path>
            <path d="M10.8887931,19.4439655 C10.8887931,16.5767241 13.2215517,14.2439655 16.087931,14.2439655 C18.4525862,14.2439655 20.3775862,16.1681034 20.3775862,18.5336207 C20.3775862,20.5008621 18.7767241,22.1025862 16.8077586,22.1025862 C15.1534483,22.1025862 13.8077586,20.7560345 13.8077586,19.1025862 C13.8077586,17.6956897 14.9525862,16.5508621 16.3594828,16.5508621 C16.8362069,16.5508621 17.2215517,16.9362069 17.2215517,17.412931 C17.2215517,17.8896552 16.8362069,18.275 16.3594828,18.275 C15.9034483,18.275 15.5318966,18.6465517 15.5318966,19.1025862 C15.5318966,19.8060345 16.1043103,20.3784483 16.8077586,20.3784483 C17.8258621,20.3784483 18.6534483,19.5508621 18.6534483,18.5336207 C18.6534483,17.1189655 17.5025862,15.9681034 16.087931,15.9681034 C14.1715517,15.9681034 12.612931,17.5275862 12.612931,19.4439655 C12.612931,22.1810345 15.0034483,23.1568966 17.2413793,23.1568966 C20.0215517,23.1568966 21.5517241,21.3198276 21.5517241,17.9844828 C21.5517241,17.5077586 21.937069,17.1224138 22.4137931,17.1224138 C22.8905172,17.1224138 23.2758621,17.5077586 23.2758621,17.9844828 C23.2758621,22.237931 20.962931,24.8810345 17.2413793,24.8810345 C13.4422414,24.8810345 10.8887931,22.6965517 10.8887931,19.4439655 Z" id="Shape" fill="#AE7550"></path>
            <path d="M29.3043103,19.1594828 C29.3043103,17.1922414 30.9051724,15.5905172 32.8741379,15.5905172 C34.5284483,15.5905172 35.8741379,16.937069 35.8741379,18.5905172 C35.8741379,19.9974138 34.7293103,21.1422414 33.3224138,21.1422414 C32.8456897,21.1422414 32.4603448,20.7568966 32.4603448,20.2801724 C32.4603448,19.8034483 32.8456897,19.4181034 33.3224138,19.4181034 C33.7784483,19.4181034 34.15,19.0465517 34.15,18.5905172 C34.15,17.887069 33.5775862,17.3146552 32.8741379,17.3146552 C31.8560345,17.3146552 31.0284483,18.1422414 31.0284483,19.1594828 C31.0284483,20.5741379 32.1793103,21.725 33.5939655,21.725 C35.5103448,21.725 37.0689655,20.1655172 37.0689655,18.2491379 C37.0689655,15.512069 34.6784483,14.5362069 32.4405172,14.5362069 C29.6603448,14.5362069 28.1301724,16.3732759 28.1301724,19.7086207 C28.1301724,20.1853448 27.7448276,20.5706897 27.2681034,20.5706897 C26.7913793,20.5706897 26.4060345,20.1853448 26.4060345,19.7086207 C26.4060345,15.4543103 28.7189655,12.812069 32.4405172,12.812069 C36.2396552,12.812069 38.7931034,14.9965517 38.7931034,18.2491379 C38.7931034,21.1163793 36.4603448,23.4491379 33.5939655,23.4491379 C31.2293103,23.4491379 29.3043103,21.525 29.3043103,19.1594828 Z" id="Shape" fill="#AE7550"></path>
            <path d="M16.3793103,37.0793103 C16.3793103,31.8422414 20.625,29.3206897 25.862069,29.3206897 C31.0991379,29.3206897 35.3448276,31.8422414 35.3448276,37.0793103 C35.3448276,42.3163793 31.0991379,37.9413793 25.862069,37.9413793 C20.625,37.9413793 16.3793103,42.3172414 16.3793103,37.0793103 L16.3793103,37.0793103 Z" id="Shape" fill="#802D40"></path>
            <path d="M25.862069,37.9422414 C27.412069,37.9422414 28.8741379,38.3258621 30.1663793,38.7293103 C30.1318966,36.3784483 28.2215517,34.4818966 25.862069,34.4818966 C23.5025862,34.4818966 21.5922414,36.3784483 21.5577586,38.7293103 C22.85,38.325 24.312069,37.9422414 25.862069,37.9422414 L25.862069,37.9422414 Z" id="Shape" fill="#E64C3C"></path>
        </g>
    </g>
</svg>