
<svg width="51px" height="46px" viewBox="0 0 51 46" version="1.1" xmlns="http://www.w3.org/2000/svg" xmlns:xlink="http://www.w3.org/1999/xlink">
    <!-- Generator: Sketch 3.8.1 (29687) - http://www.bohemiancoding.com/sketch -->
    <desc>Created with Sketch.</desc>
    <defs></defs>
    <g id="drunk2" stroke="none" stroke-width="1" fill="none" fill-rule="evenodd">
        <g id="Group">
            <path d="M25.337931,45.6887931 C35.0327586,45.8232759 40.4413793,41.912069 43.4482759,37.7672414 C46.5543103,33.4862069 47.5551724,28.0405172 46.5922414,22.8336207 C43.1068966,4.00172414 25.337931,4.1612069 25.337931,4.1612069 C25.337931,4.1612069 7.56982759,4.00172414 4.08448276,22.8344828 C3.12068966,28.0413793 4.12241379,33.4862069 7.22844828,37.7681034 C10.2344828,41.912069 15.6431034,45.8232759 25.337931,45.6887931 L25.337931,45.6887931 Z" id="Shape" fill="#FDC794"></path>
            <path d="M3.87844828,24.2456897 C3.48793103,23.8758621 3.02931034,23.6534483 2.53448276,23.6534483 C1.13448276,23.6534483 0,25.3612069 0,27.4672414 C0,29.5732759 1.13448276,31.2810345 2.53362069,31.2810345 C3.12586207,31.2810345 3.6637931,30.962069 4.09482759,30.45 C3.70431034,28.4224138 3.6362069,26.3258621 3.87844828,24.2456897 L3.87844828,24.2456897 Z" id="Shape" fill="#F9A671"></path>
            <path d="M49.8474138,20.9465517 C49.362069,18.8974138 47.8646552,17.4991379 46.5034483,17.8241379 C46.0801724,17.925 45.7293103,18.1948276 45.4474138,18.5612069 C45.9112069,19.8672414 46.3043103,21.2801724 46.5922414,22.8344828 C46.7258621,23.5560345 46.8172414,24.2818966 46.875,25.0086207 C47.3232759,25.2534483 47.7991379,25.3551724 48.2612069,25.2448276 C49.6224138,24.9198276 50.3327586,22.9956897 49.8474138,20.9465517 L49.8474138,20.9465517 Z" id="Shape" fill="#F9A671"></path>
            <path d="M11.9827586,12.9301724 C11.762069,12.9301724 11.5413793,12.8456897 11.3732759,12.6775862 L7.06293103,8.36724138 C6.72586207,8.03017241 6.72586207,7.48534483 7.06293103,7.14827586 C7.4,6.8112069 7.94482759,6.8112069 8.28189655,7.14827586 L12.5922414,11.4586207 C12.9293103,11.7956897 12.9293103,12.3405172 12.5922414,12.6775862 C12.4241379,12.8456897 12.2034483,12.9301724 11.9827586,12.9301724 L11.9827586,12.9301724 Z" id="Shape" fill="#5E5F62"></path>
            <path d="M14.5698276,10.3439655 C14.2534483,10.3439655 13.9491379,10.1698276 13.7974138,9.86724138 L11.2112069,4.69482759 C10.9982759,4.26896552 11.1706897,3.75086207 11.5965517,3.53793103 C12.0232759,3.32586207 12.5396552,3.49741379 12.7534483,3.92327586 L15.3396552,9.09568966 C15.5525862,9.52155172 15.3801724,10.0396552 14.9543103,10.2525862 C14.8310345,10.3146552 14.7,10.3439655 14.5698276,10.3439655 L14.5698276,10.3439655 Z" id="Shape" fill="#5E5F62"></path>
            <path d="M18.0172414,8.61982759 C17.6560345,8.61982759 17.3198276,8.39137931 17.2,8.03017241 L15.4758621,2.85775862 C15.325,2.40603448 15.5689655,1.91724138 16.0206897,1.76724138 C16.4767241,1.61465517 16.9603448,1.86034483 17.1112069,2.31206897 L18.8353448,7.48448276 C18.9862069,7.9362069 18.7422414,8.425 18.2905172,8.575 C18.1991379,8.60517241 18.1077586,8.61982759 18.0172414,8.61982759 L18.0172414,8.61982759 Z" id="Shape" fill="#5E5F62"></path>
            <path d="M22.3267241,7.75775862 C21.912931,7.75775862 21.5474138,7.45862069 21.4775862,7.03706897 L20.6155172,1.86465517 C20.537069,1.39568966 20.8543103,0.950862069 21.3241379,0.873275862 C21.7939655,0.787931034 22.237931,1.11206897 22.3155172,1.58189655 L23.1775862,6.75431034 C23.2560345,7.22327586 22.9387931,7.66810345 22.4689655,7.74568966 C22.4215517,7.75431034 22.3741379,7.75775862 22.3267241,7.75775862 L22.3267241,7.75775862 Z" id="Shape" fill="#5E5F62"></path>
            <path d="M25.7758621,7.75775862 C25.2991379,7.75775862 24.9137931,7.37241379 24.9137931,6.89568966 L24.9137931,1.72327586 C24.9137931,1.24655172 25.2991379,0.861206897 25.7758621,0.861206897 C26.2525862,0.861206897 26.637931,1.24655172 26.637931,1.72327586 L26.637931,6.89568966 C26.637931,7.37241379 26.2525862,7.75775862 25.7758621,7.75775862 L25.7758621,7.75775862 Z" id="Shape" fill="#5E5F62"></path>
            <path d="M29.2241379,7.75775862 C29.1344828,7.75775862 29.0422414,7.74310345 28.9517241,7.71293103 C28.5008621,7.56293103 28.2560345,7.075 28.4068966,6.62241379 L30.1310345,1.45 C30.2818966,0.999137931 30.7663793,0.752586207 31.2215517,0.905172414 C31.6724138,1.05517241 31.9172414,1.54310345 31.7663793,1.99568966 L30.0422414,7.16810345 C29.9215517,7.52931034 29.5853448,7.75775862 29.2241379,7.75775862 L29.2241379,7.75775862 Z" id="Shape" fill="#5E5F62"></path>
            <path d="M32.6724138,8.61982759 C32.5827586,8.61982759 32.4905172,8.60517241 32.4,8.575 C31.9491379,8.425 31.7043103,7.93706897 31.8551724,7.48448276 L33.5793103,2.31206897 C33.7301724,1.8612069 34.2137931,1.61465517 34.6698276,1.76724138 C35.1206897,1.91724138 35.3655172,2.40517241 35.2146552,2.85775862 L33.4905172,8.03017241 C33.3698276,8.39137931 33.0336207,8.61982759 32.6724138,8.61982759 L32.6724138,8.61982759 Z" id="Shape" fill="#5E5F62"></path>
            <path d="M35.2577586,10.3439655 C35.1284483,10.3439655 34.9965517,10.3146552 34.8732759,10.2534483 C34.4474138,10.0405172 34.275,9.52241379 34.487931,9.09655172 L37.0741379,3.92413793 C37.287931,3.49827586 37.8051724,3.32672414 38.2310345,3.5387931 C38.6568966,3.75172414 38.8293103,4.26982759 38.6163793,4.69568966 L36.0301724,9.86810345 C35.8784483,10.1698276 35.575,10.3439655 35.2577586,10.3439655 L35.2577586,10.3439655 Z" id="Shape" fill="#5E5F62"></path>
            <path d="M18.9655172,25.8612069 C15.1663793,25.8612069 12.612931,23.6767241 12.612931,20.4241379 C12.612931,17.5568966 14.9456897,15.2241379 17.812069,15.2241379 C20.1767241,15.2241379 22.1017241,17.1482759 22.1017241,19.5137931 C22.1017241,21.4810345 20.5008621,23.0827586 18.5318966,23.0827586 C16.8775862,23.0827586 15.5318966,21.7362069 15.5318966,20.0827586 C15.5318966,18.6758621 16.6767241,17.5310345 18.0836207,17.5310345 C18.5603448,17.5310345 18.9456897,17.9163793 18.9456897,18.3931034 C18.9456897,18.8698276 18.5603448,19.2551724 18.0836207,19.2551724 C17.6275862,19.2551724 17.2560345,19.6267241 17.2560345,20.0827586 C17.2560345,20.7862069 17.8284483,21.3586207 18.5318966,21.3586207 C19.55,21.3586207 20.3775862,20.5310345 20.3775862,19.5137931 C20.3775862,18.0991379 19.2267241,16.9482759 17.812069,16.9482759 C15.8956897,16.9482759 14.337069,18.5077586 14.337069,20.4241379 C14.337069,23.1612069 16.7275862,24.137069 18.9655172,24.137069 C21.7456897,24.137069 23.2758621,22.3 23.2758621,18.9646552 C23.2758621,18.487931 23.6612069,18.1025862 24.137931,18.1025862 C24.6146552,18.1025862 25,18.487931 25,18.9646552 C25,23.2181034 22.687069,25.8612069 18.9655172,25.8612069 L18.9655172,25.8612069 Z" id="Shape" fill="#AE7550"></path>
            <path d="M35.3181034,24.4293103 C32.9534483,24.4293103 31.0284483,22.5051724 31.0284483,20.1396552 C31.0284483,18.1724138 32.6293103,16.5706897 34.5982759,16.5706897 C36.2525862,16.5706897 37.5982759,17.9172414 37.5982759,19.5706897 C37.5982759,20.9775862 36.4534483,22.1224138 35.0465517,22.1224138 C34.5698276,22.1224138 34.1844828,21.737069 34.1844828,21.2603448 C34.1844828,20.7836207 34.5698276,20.3982759 35.0465517,20.3982759 C35.5025862,20.3982759 35.8741379,20.0267241 35.8741379,19.5706897 C35.8741379,18.8672414 35.3017241,18.2948276 34.5982759,18.2948276 C33.5801724,18.2948276 32.7525862,19.1224138 32.7525862,20.1396552 C32.7525862,21.5543103 33.9034483,22.7051724 35.3181034,22.7051724 C37.2344828,22.7051724 38.7931034,21.1456897 38.7931034,19.2293103 C38.7931034,16.4922414 36.4025862,15.5163793 34.1646552,15.5163793 C31.3844828,15.5163793 29.8543103,17.3534483 29.8543103,20.6887931 C29.8543103,21.1655172 29.4689655,21.5508621 28.9922414,21.5508621 C28.5155172,21.5508621 28.1301724,21.1655172 28.1301724,20.6887931 C28.1301724,16.4344828 30.4431034,13.7922414 34.1646552,13.7922414 C37.9637931,13.7922414 40.5172414,15.9767241 40.5172414,19.2293103 C40.5172414,22.0965517 38.1844828,24.4293103 35.3181034,24.4293103 L35.3181034,24.4293103 Z" id="Shape" fill="#AE7550"></path>
            <g transform="translate(24.137931, 31.034483)" id="Shape">
                <path d="M1.66982759,5.56810345 C-0.419827586,1.01637931 4.82672414,0.786206897 6.86637931,1.17155172 C7.74827586,1.33793103 7.60517241,1.5887931 8.08103448,2.625 C8.55689655,3.6612069 8.83965517,3.71724138 8.39137931,4.49396552 C7.35344828,6.29137931 3.75948276,10.1198276 1.66982759,5.56810345 L1.66982759,5.56810345 Z" fill="#C03A2B"></path>
                <path d="M4.21034483,8.57672414 C4.1637931,8.57672414 4.11724138,8.575 4.06982759,8.57327586 C3.15258621,8.53017241 1.85517241,8.03706897 0.886206897,5.92758621 L0.886206897,5.92758621 C-0.0818965517,3.81896552 0.389655172,2.51293103 0.956034483,1.7887931 C2.41465517,-0.0784482759 5.83362069,0.0982758621 7.02672414,0.325 C8.09741379,0.525862069 8.35948276,1.00689655 8.6362069,1.71810345 C8.69482759,1.86810345 8.76465517,2.04827586 8.86551724,2.26637931 C8.96465517,2.48275862 9.05603448,2.65344828 9.13189655,2.79568966 C9.49051724,3.46896552 9.68448276,3.98189655 9.13965517,4.92586207 C8.54224138,5.95689655 6.51896552,8.57672414 4.21034483,8.57672414 L4.21034483,8.57672414 Z M2.45344828,5.20862069 C2.93965517,6.26810345 3.5112069,6.82155172 4.15,6.85086207 C5.35689655,6.9 6.95,5.26810345 7.64568966,4.0637931 C7.74137931,3.89827586 7.75775862,3.8387931 7.75862069,3.83275862 C7.75,3.85517241 7.67155172,3.72155172 7.60862069,3.60431034 C7.52068966,3.4387931 7.41465517,3.2387931 7.29913793,2.98534483 C7.18189655,2.73017241 7.1,2.51982759 7.03017241,2.34396552 C6.99051724,2.24224138 6.94224138,2.11810345 6.91206897,2.05775862 C6.89224138,2.05689655 6.82844828,2.04137931 6.70775862,2.01810345 C5.34137931,1.7612069 3.05344828,1.90517241 2.3137931,2.85086207 C1.91982759,3.35431034 1.96637931,4.14741379 2.45344828,5.20862069 L2.45344828,5.20862069 L2.45344828,5.20862069 Z" fill="#F9A671"></path>
            </g>
        </g>
    </g>
</svg>