
<svg width="55px" height="56px" viewBox="0 0 55 56" version="1.1" xmlns="http://www.w3.org/2000/svg" xmlns:xlink="http://www.w3.org/1999/xlink">
    <!-- Generator: Sketch 3.8.1 (29687) - http://www.bohemiancoding.com/sketch -->
    <desc>Created with Sketch.</desc>
    <defs></defs>
    <g id="guitar" stroke="none" stroke-width="1" fill="none" fill-rule="evenodd">
        <polygon id="Shape" fill="#E4C05C" points="39.912931 6.63793103 38.9646552 5.68965517 38.9646552 3.79310345 39.912931 2.84482759 41.8094828 2.84482759 42.7577586 3.79310345 42.7577586 5.68965517 41.8094828 6.63793103"></polygon>
        <polygon id="Shape" fill="#E4C05C" points="45.6025862 3.79310345 44.6543103 2.84482759 44.6543103 0.948275862 45.6025862 0 47.4991379 0 48.4474138 0.948275862 48.4474138 2.84482759 47.4991379 3.79310345"></polygon>
        <path d="M39.0348276,8.76301724 L22.7737931,27.7019828 L25.6489655,32.872931 L43.0460345,12.7969828 C40.7512069,12.9809483 38.9693966,10.907069 39.0348276,8.76301724 L39.0348276,8.76301724 Z" id="Shape" fill="#7F6E5D"></path>
        <path d="M39.1135345,18.3017241 C38.8736207,18.3017241 38.6327586,18.2106897 38.4487931,18.029569 L34.4167241,14.0591379 C34.0431034,13.6912069 34.0393103,13.0909483 34.4053448,12.7182759 C34.7732759,12.3437069 35.3735345,12.3399138 35.7462069,12.7068966 L39.7782759,16.6773276 C40.1518966,17.0452586 40.1556897,17.6455172 39.7896552,18.0181897 C39.6037931,18.2068966 39.3591379,18.3017241 39.1135345,18.3017241 L39.1135345,18.3017241 Z" id="Shape" fill="#7F5B53"></path>
        <path d="M35.2360345,22.532931 C34.9932759,22.532931 34.7505172,22.44 34.5656034,22.2550862 L30.7013793,18.3899138 C30.3306034,18.0191379 30.3306034,17.4198276 30.7013793,17.0490517 C31.0721552,16.6782759 31.6714655,16.6782759 32.0422414,17.0490517 L35.9064655,20.9142241 C36.2772414,21.285 36.2772414,21.8843103 35.9064655,22.2550862 C35.7215517,22.44 35.4787931,22.532931 35.2360345,22.532931 L35.2360345,22.532931 Z" id="Shape" fill="#7F5B53"></path>
        <path d="M31.6050862,27.0002586 C31.360431,27.0002586 31.1157759,26.905431 30.9299138,26.7176724 L26.9860345,22.7216379 C26.6181034,22.3489655 26.6218966,21.7487069 26.9955172,21.3807759 C27.3672414,21.0128448 27.9665517,21.0166379 28.3363793,21.3902586 L32.2802586,25.3862931 C32.6481897,25.7589655 32.6443966,26.3592241 32.2707759,26.7271552 C32.0868103,26.9092241 31.8459483,27.0002586 31.6050862,27.0002586 L31.6050862,27.0002586 Z" id="Shape" fill="#7F5B53"></path>
        <path d="M54.7762069,1.45086207 C54.5068966,0.641982759 53.8383621,-0.130862069 52.2405172,0.0189655172 C52.2405172,0.0189655172 50.6493103,0.154568966 48.4199138,0.921724138 L48.4474138,0.948275862 L48.4474138,2.84482759 L47.4991379,3.79310345 L45.6025862,3.79310345 L44.6543103,2.84482759 L44.6543103,2.65043103 C44.0265517,3.01741379 43.3921552,3.4375 42.7577586,3.91258621 L42.7577586,5.68965517 L41.8094828,6.63793103 L39.912931,6.63793103 L39.8560345,6.58103448 C37.5602586,9.405 40.3358621,13.8144828 43.9032759,12.6424138 C44.3546552,12.4944828 44.8126724,12.2725862 45.2621552,11.9539655 C45.887069,11.5111207 46.3299138,10.8539655 46.5612931,10.1237931 C46.8031034,9.36232759 46.9643103,8.25189655 48.0956034,7.19931034 C48.6664655,6.66827586 49.885,6.2187931 50.8228448,5.83568966 C51.5558621,5.53603448 52.9033621,5.71241379 54.0403448,4.4825 C54.7932759,3.66793103 55.1251724,2.50344828 54.7762069,1.45086207 L54.7762069,1.45086207 Z" id="Shape" fill="#5E5F62"></path>
        <path d="M25.6489655,32.8738793 L22.7737931,27.702931 L25.3768103,24.7262931 L22.8439655,22.3318966 L0.0853448276,34.137931 L2.54043103,47.4137931 C6.43594828,48.3781897 9.46189655,51.1281897 10.5163793,55 L23.5997414,55 L32.3267241,31.2931034 L29.4373276,28.5630172 L25.6489655,32.8738793 L25.6489655,32.8738793 Z" id="Shape" fill="#5E5F62"></path>
        <path d="M12.2213793,43.8122414 C11.9805172,43.8122414 11.7406034,43.7212069 11.5556897,43.5391379 C11.182069,43.1721552 11.1792241,42.5709483 11.5462069,42.1982759 L19.2092241,34.4205172 C19.5762069,34.0478448 20.1764655,34.0431034 20.5500862,34.4110345 C20.9237069,34.7780172 20.9265517,35.3792241 20.559569,35.7518966 L12.8965517,43.5296552 C12.7106897,43.7183621 12.4660345,43.8122414 12.2213793,43.8122414 L12.2213793,43.8122414 Z" id="Shape" fill="#E4C05C"></path>
        <path d="M10.2100862,41.8009483 C9.97112069,41.8009483 9.73310345,41.7108621 9.54913793,41.5325862 C9.17362069,41.1665517 9.16603448,40.5662931 9.53017241,40.1917241 L18.1414655,31.3509483 C18.5084483,30.9744828 19.1087069,30.9706897 19.4823276,31.3319828 C19.8578448,31.6980172 19.865431,32.2982759 19.5012931,32.6728448 L10.89,41.5136207 C10.7031897,41.7051724 10.4556897,41.8009483 10.2100862,41.8009483 L10.2100862,41.8009483 Z" id="Shape" fill="#E4C05C"></path>
        <path d="M14.2326724,45.8235345 C13.9946552,45.8235345 13.7566379,45.7343966 13.5726724,45.5561207 C13.1971552,45.1910345 13.1876724,44.5898276 13.5527586,44.2152586 L21.2157759,36.3227586 C21.5818103,35.9472414 22.182069,35.9387069 22.5566379,36.3028448 C22.9321552,36.667931 22.9416379,37.2691379 22.5765517,37.6437069 L14.9135345,45.5362069 C14.7267241,45.7277586 14.4801724,45.8235345 14.2326724,45.8235345 L14.2326724,45.8235345 Z" id="Shape" fill="#E4C05C"></path>
        <polygon id="Shape" fill="#CBB292" points="13.5612931 49.7882759 5.51422414 41.7412069 8.19784483 38.8413793 16.2439655 46.8875"></polygon>
    </g>
</svg>