
<svg width="56px" height="45px" viewBox="-3 4 56 45" version="1.1" xmlns="http://www.w3.org/2000/svg" xmlns:xlink="http://www.w3.org/1999/xlink">
    <!-- Generator: Sketch 3.8.1 (29687) - http://www.bohemiancoding.com/sketch -->
    <desc>Created with Sketch.</desc>
    <defs></defs>
    <g id="harmonica" stroke="none" stroke-width="1" fill="none" fill-rule="evenodd" transform="translate(25.000000, 26.500000) rotate(-10.000000) translate(-25.000000, -26.500000) translate(0.000000, 9.000000)">
        <g>
            <path d="M46.8732759,3.44827586 L41.3793103,3.44827586 L41.3793103,16.5965517 C41.3793103,18.3810345 39.9327586,19.8275862 38.1482759,19.8275862 L11.8517241,19.8275862 C10.0672414,19.8275862 8.62068966,18.3810345 8.62068966,16.5965517 L8.62068966,3.44827586 L3.12672414,3.44827586 C1.4,3.44827586 0,4.84827586 0,6.575 L0,24.137931 L50,24.137931 L50,6.575 C50,4.84827586 48.6,3.44827586 46.8732759,3.44827586 L46.8732759,3.44827586 L46.8732759,3.44827586 Z" id="Shape" fill="#D1D4D1"></path>
            <polygon id="Shape" fill="#FFFFFF" points="44.8275862 15.5172414 43.9655172 14.6551724 43.9655172 12.9310345 44.8275862 12.0689655 46.5517241 12.0689655 47.4137931 12.9310345 47.4137931 14.6551724 46.5517241 15.5172414"></polygon>
            <polygon id="Shape" fill="#FFFFFF" points="3.44827586 15.5172414 2.5862069 14.6551724 2.5862069 12.9310345 3.44827586 12.0689655 5.17241379 12.0689655 6.03448276 12.9310345 6.03448276 14.6551724 5.17241379 15.5172414"></polygon>
            <path d="M48.3706897,34.4827586 L1.62931034,34.4827586 C0.729310345,34.4827586 0,33.7534483 0,32.8534483 L0,24.137931 L50,24.137931 L50,32.8534483 C50,33.7534483 49.2706897,34.4827586 48.3706897,34.4827586 L48.3706897,34.4827586 L48.3706897,34.4827586 Z" id="Shape" fill="#B4935B"></path>
            <rect id="Rectangle-path" fill="#42241E" x="3.44827586" y="26.7241379" width="4.31034483" height="2.5862069"></rect>
            <rect id="Rectangle-path" fill="#7F6E5D" x="3.44827586" y="29.3103448" width="4.31034483" height="2.5862069"></rect>
            <rect id="Rectangle-path" fill="#42241E" x="11.2068966" y="26.7241379" width="4.31034483" height="2.5862069"></rect>
            <rect id="Rectangle-path" fill="#7F6E5D" x="11.2068966" y="29.3103448" width="4.31034483" height="2.5862069"></rect>
            <rect id="Rectangle-path" fill="#42241E" x="18.9655172" y="26.7241379" width="4.31034483" height="2.5862069"></rect>
            <rect id="Rectangle-path" fill="#7F6E5D" x="18.9655172" y="29.3103448" width="4.31034483" height="2.5862069"></rect>
            <rect id="Rectangle-path" fill="#42241E" x="26.7241379" y="26.7241379" width="4.31034483" height="2.5862069"></rect>
            <rect id="Rectangle-path" fill="#7F6E5D" x="26.7241379" y="29.3103448" width="4.31034483" height="2.5862069"></rect>
            <rect id="Rectangle-path" fill="#42241E" x="34.4827586" y="26.7241379" width="4.31034483" height="2.5862069"></rect>
            <rect id="Rectangle-path" fill="#7F6E5D" x="34.4827586" y="29.3103448" width="4.31034483" height="2.5862069"></rect>
            <rect id="Rectangle-path" fill="#42241E" x="42.2413793" y="26.7241379" width="4.31034483" height="2.5862069"></rect>
            <rect id="Rectangle-path" fill="#7F6E5D" x="42.2413793" y="29.3103448" width="4.31034483" height="2.5862069"></rect>
            <path d="M38.1482759,19.8275862 L11.8517241,19.8275862 C10.0672414,19.8275862 8.62068966,18.3810345 8.62068966,16.5965517 L8.62068966,3.70862069 C8.62068966,1.66034483 10.2810345,0 12.3293103,0 L37.6698276,0 C39.7189655,0 41.3793103,1.66034483 41.3793103,3.70862069 L41.3793103,16.5965517 C41.3793103,18.3810345 39.9327586,19.8275862 38.1482759,19.8275862 L38.1482759,19.8275862 L38.1482759,19.8275862 Z" id="Shape" fill="#ECF0F1"></path>
            <path d="M12.0689655,8.62068966 C11.5931034,8.62068966 11.2068966,8.23534483 11.2068966,7.75862069 L11.2068966,4.61810345 C11.2068966,3.49741379 12.1189655,2.5862069 13.2396552,2.5862069 L19.8275862,2.5862069 C20.3034483,2.5862069 20.6896552,2.97155172 20.6896552,3.44827586 C20.6896552,3.925 20.3034483,4.31034483 19.8275862,4.31034483 L13.2396552,4.31034483 C13.0724138,4.31034483 12.9310345,4.45172414 12.9310345,4.61810345 L12.9310345,7.75862069 C12.9310345,8.23534483 12.5448276,8.62068966 12.0689655,8.62068966 L12.0689655,8.62068966 L12.0689655,8.62068966 Z" id="Shape" fill="#FFFFFF"></path>
        </g>
    </g>
</svg>