
<svg width="186px" height="217px" viewBox="-150 -176 186 217" version="1.1" xmlns="http://www.w3.org/2000/svg" xmlns:xlink="http://www.w3.org/1999/xlink">
    <!-- Generator: Sketch 3.8.1 (29687) - http://www.bohemiancoding.com/sketch -->
    <desc>Created with Sketch.</desc>
    <defs></defs>
    <g id="glass-2" stroke="none" stroke-width="1" fill="none" fill-rule="evenodd" transform="translate(-150.000000, -176.000000)">
        <g id="Page-1">
            <g id="glass">
                <g id="Group">
                    <g opacity="0.8">
                        <ellipse id="Oval" fill="#fefefe" cx="92.5" cy="13.1971479" rx="89.8571429" ry="10.5577183"></ellipse>
                        <path d="M92.5,26.3942957 C77.0551429,26.3942957 0,25.7608326 0,13.1971479 C0,0.633463097 77.0551429,0 92.5,0 C107.944857,0 185,0.633463097 185,13.1971479 C185,25.7608326 107.944857,26.3942957 92.5,26.3942957 L92.5,26.3942957 L92.5,26.3942957 Z M5.92528571,13.1971479 C11.877,16.7075892 43.1261429,21.1154366 92.5,21.1154366 C141.873857,21.1154366 173.123,16.7075892 179.074714,13.1971479 C173.123,9.68670652 141.873857,5.27885914 92.5,5.27885914 C43.1261429,5.27885914 11.877,9.68670652 5.92528571,13.1971479 L5.92528571,13.1971479 L5.92528571,13.1971479 Z M179.894,13.8464475 L179.946857,13.8464475 L179.894,13.8464475 L179.894,13.8464475 L179.894,13.8464475 Z" id="Shape" fill="#fff"></path>
                    </g>
                    <g id="Shape" opacity="0.8" transform="translate(0.000000, 9.106368)">
                        <path d="M92.5,13.8080313 C42.8724286,13.8080313 2.64285714,11.9973826 2.64285714,3.25031301 L18.5,193.289242 C18.5,199.117103 60.3892857,203.84696 92.5,203.84696 C124.610714,203.84696 166.5,199.117103 166.5,193.289242 L182.357143,3.25031301 C182.357143,11.9973826 142.127571,13.8080313 92.5,13.8080313 L92.5,13.8080313 L92.5,13.8080313 Z" fill="#fefefe"></path>
                        <path d="M43.1102857,203.371863 C15.8571429,199.77696 15.8571429,195.559152 15.8571429,193.289242 L0.0687142857,4.20578651 C0.0211428571,3.88905496 0,3.57760227 0,3.25031301 C0,1.83557876 1.11528571,0.674229746 2.53185714,0.610883436 C3.90085714,0.579210282 5.15885714,1.61914553 5.27514286,3.02860092 C5.92,5.9900409 16.3592857,11.1686017 92.5,11.1686017 C168.640714,11.1686017 179.085286,5.9900409 179.682571,3.49314053 C179.841143,1.61914553 181.104429,0.631998873 182.468143,0.610883436 C183.884714,0.674229746 185,1.83557876 185,3.25031301 C185,3.57760227 184.978857,3.88905496 184.926,4.20578651 L169.132286,193.510954 C169.142857,195.559152 169.142857,199.77696 141.889714,203.371863 C127.100286,205.319762 108.637286,206.48639 92.5,206.48639 C76.3627143,206.48639 57.8997143,205.319762 43.1102857,203.371863 L43.1102857,203.371863 Z M21.1111429,192.777193 C25.0701429,196.541019 58.8775714,201.207531 92.5,201.207531 C126.148857,201.207531 159.988,196.530462 163.899429,192.771914 L179.143429,10.0072527 C169.481143,14.156436 145.711286,16.4474609 92.5,16.4474609 C39.2887143,16.4474609 15.5188571,14.156436 5.85657143,10.0072527 L21.1111429,192.777193 L21.1111429,192.777193 L21.1111429,192.777193 Z M163.878286,193.051693 C163.862429,193.125597 163.857143,193.199501 163.857143,193.289242 L163.878286,193.051693 L163.878286,193.051693 L163.878286,193.051693 Z M21.127,192.988347 L21.1322857,193.06753 C21.1375714,193.046415 21.1322857,193.014741 21.127,192.988347 L21.127,192.988347 L21.127,192.988347 Z" fill="#fff"></path>
                    </g>
                    <path d="M13.4189169,91.0407064 C13.1443718,90.9615235 12.8291533,90.8823406 12.5698607,90.8031577 L19.3724788,175.544684 C31.9252922,180.126733 65.460471,183.42602 92.5031661,183.42602 C119.545861,183.42602 153.075956,180.126733 165.633853,175.544684 L172.436471,90.8031577 C172.222936,90.866504 171.968728,90.9298504 171.750109,90.9984755 C166.625266,95.8286316 133.954396,99.560785 92.9149838,99.560785 C52.0077598,99.560785 18.7979677,95.8497471 13.4189169,91.0407064 L13.4189169,91.0407064 Z" id="Shape" stroke="#979797" fill="#CC6329"></path>
                </g>
                <path d="M172.442804,90.5875913 C172.442804,82.8205211 135.935608,80.9819393 92.5790843,80.9819393 C49.222561,80.9819393 12.6712329,85.2825362 12.6712329,90.5875913 C12.6712329,95.8926464 49.222561,100.193243 92.5790843,100.193243 C135.935608,100.193243 172.442804,98.3546615 172.442804,90.5875913 Z" id="Oval-2" fill="#DB7A44"></path>
            </g>
        </g>
    </g>
</svg>