
<svg width="90px" height="97px" viewBox="0 0 90 97" version="1.1" xmlns="http://www.w3.org/2000/svg" xmlns:xlink="http://www.w3.org/1999/xlink">
    <!-- Generator: Sketch 3.8.1 (29687) - http://www.bohemiancoding.com/sketch -->
    <desc>Created with Sketch.</desc>
    <defs></defs>
    <g id="music-copy-2" stroke="none" stroke-width="1" fill="none" fill-rule="evenodd">
        <path d="M77.3335641,29.0722337 L38.0090408,34.175417 L38.0090408,76.560751 C38.0090408,76.7390494 37.966775,76.9041947 37.9084775,77.0620326 C37.9696899,77.534085 38.0090408,78.0105217 38.0090408,78.4957273 C38.0090408,85.3105267 31.8105509,90.8363162 24.1633661,90.8363162 C19.1774144,90.8363162 14.8073055,88.487293 12.3695196,84.9635366 C12.2442349,84.8411916 12.1216761,84.7165913 12.0019289,84.5898121 C11.8447637,84.4392823 11.6917679,84.2852481 11.5431054,84.1278555 C11.3859401,83.9773258 11.2329443,83.8232916 11.0842818,83.665899 C8.78366825,81.4624169 7.37647059,78.508011 7.37647059,75.2609707 C7.37647059,68.4461713 13.5749606,62.9203817 21.2221454,62.9203817 C25.4702624,62.9203817 29.2613888,64.6321663 31.7990213,67.3180807 C31.9189458,67.4329713 32.036457,67.5498964 32.1514837,67.6687898 L32.1514837,29.6574964 L32.1514837,23.5018165 L32.1514837,14.708197 C32.1514837,13.9730814 32.6951087,13.3534213 33.4223709,13.2584262 L78.6029938,7.39650035 C79.0227364,7.34681063 79.4381066,7.4724964 79.7529135,7.74871281 C79.8611887,7.84371512 79.9536023,7.95341265 80.0282566,8.07358358 C80.0924246,8.11407425 80.1537848,8.15982117 80.211737,8.21066933 C80.3200122,8.30567164 80.4124258,8.41536918 80.4870802,8.5355401 C80.5512482,8.57603078 80.6126083,8.62177769 80.6705605,8.67262585 C80.7788358,8.76762816 80.8712493,8.8773257 80.9459037,8.99749663 C81.0100717,9.0379873 81.0714319,9.08373421 81.1293841,9.13458237 C81.2376593,9.22958469 81.3300729,9.33928222 81.4047272,9.45945315 C81.4688952,9.49994382 81.5302554,9.54569073 81.5882076,9.59653889 C81.6964828,9.69154121 81.7888964,9.80123874 81.8635508,9.92140967 C81.9277188,9.96190034 81.9890789,10.0076473 82.0470311,10.0584954 C82.1553063,10.1534977 82.2477199,10.2631953 82.3223743,10.3833662 C82.3865423,10.4238569 82.4479024,10.4696038 82.5058547,10.5204519 C82.7413781,10.7271038 82.9018503,11.003288 82.9677408,11.3055518 C83.1112459,11.5353934 83.1896637,11.8037715 83.1896637,12.0810277 L83.1896637,20.8731858 L83.1896637,27.0274042 C83.1896637,27.0274042 83.170717,63.4441254 83.1678021,63.483585 C83.1721744,63.6165781 83.1896637,63.7466482 83.1896637,63.8811028 C83.1896637,70.6959022 76.9911737,76.2216917 69.3439889,76.2216917 C64.3580372,76.2216917 59.9879284,73.8726685 57.5501425,70.348912 C57.4248578,70.2265671 57.302299,70.1019668 57.1825518,69.9751875 C57.0253865,69.8246578 56.8723907,69.6706236 56.7237282,69.513231 C56.566563,69.3627013 56.4135672,69.208667 56.2649047,69.0512745 C53.9642911,66.8477924 52.5570935,63.8933865 52.5570935,60.6463463 C52.5570935,53.8315468 58.7555834,48.3057573 66.4027681,48.3057573 C70.6531777,48.3057573 74.4461034,50.0193899 76.9850219,52.7065316 C77.103583,52.8201217 77.2197867,52.9356974 77.3335641,53.0531948 L77.3335641,29.0722337 Z" id="Combined-Shape" fill="#CC6329" transform="translate(45.283067, 49.111093) rotate(10.000000) translate(-45.283067, -49.111093) "></path>
        <path d="M77.6853467,6.47258731 L32.5047238,12.3345132 C31.7774616,12.4295083 31.2338366,13.0491683 31.2338366,13.784284 L31.2338366,22.5779035 L31.2338366,28.7335834 L31.2338366,66.7827583 C28.7022643,63.874448 24.7540609,61.9964687 20.3044983,61.9964687 C12.6573135,61.9964687 6.45882353,67.5222583 6.45882353,74.3370577 C6.45882353,81.1518571 12.6573135,86.6776466 20.3044983,86.6776466 C27.951683,86.6776466 34.150173,81.1518571 34.150173,74.3370577 C34.150173,73.8518521 34.1108221,73.3754154 34.0496097,72.903363 C34.1079072,72.745525 34.150173,72.5803798 34.150173,72.4020814 L34.150173,30.0167474 L76.415917,24.5318789 L76.415917,52.1666723 C73.8828872,49.2598235 69.9346837,47.3818443 65.4851211,47.3818443 C57.8379364,47.3818443 51.6394464,52.9076337 51.6394464,59.7224332 C51.6394464,66.5372326 57.8379364,72.0630221 65.4851211,72.0630221 C73.1323059,72.0630221 79.3307958,66.5372326 79.3307958,59.7224332 C79.3307958,59.5879786 79.3133066,59.4579085 79.3089343,59.3249154 C79.3118492,59.2854558 79.3307958,22.8687346 79.3307958,22.8687346 L79.3307958,16.7145162 L79.3307958,7.92235807 C79.3307958,7.50145688 79.1500734,7.10101617 78.8352664,6.82479976 C78.5204595,6.54858336 78.1050893,6.42289759 77.6853467,6.47258731 Z" id="Shape-Copy" fill="#DF8552" transform="translate(42.894810, 46.569802) rotate(10.000000) translate(-42.894810, -46.569802) "></path>
    </g>
</svg>