
<svg width="32px" height="51px" viewBox="0 0 32 51" version="1.1" xmlns="http://www.w3.org/2000/svg" xmlns:xlink="http://www.w3.org/1999/xlink">
    <!-- Generator: Sketch 3.8.1 (29687) - http://www.bohemiancoding.com/sketch -->
    <desc>Created with Sketch.</desc>
    <defs></defs>
    <g id="smokey" stroke="none" stroke-width="1" fill="none" fill-rule="evenodd">
        <g id="Group">
            <path d="M2.08648951,35.7760135 C0.705230769,32.9155405 0.245258741,29.6728604 0.888055944,26.5588964 C1.53074126,23.4453829 3.1933986,20.5566441 5.73851748,18.4219595 L5.73851748,18.4219595 C9.88576224,14.9435811 11.7351608,9.41227477 10.5212867,4.11801802 L9.57706294,0 C9.57706294,0 21.0273566,6.86554054 21.2709371,23.5391892 C21.2709371,23.5391892 24.9253147,16.4283784 21.7582098,10.7888514 C21.7582098,10.7888514 38.5681678,20.5968468 29.0668531,38.7415541 L29.0668531,38.7415541 C26.1117762,43.069482 21.3238601,45.7668919 16.1133427,46.0393018 L7.33862937,46.6529279 L2.08648951,35.7760135 L2.08648951,35.7760135 Z" id="Shape" fill="#F99C38"></path>
            <path d="M16.1501538,33.9686937 C16.1501538,33.9686937 23.1413706,30 24.4486713,26.8421171 C25.755972,32.3684685 22.6184056,39.4736486 22.6184056,39.4736486 L17.8660699,42.9581081 L16.1501538,33.9686937 L16.1501538,33.9686937 Z" id="Shape" fill="#EF5252"></path>
            <path d="M19.6284196,46.710473 C19.6284196,46.710473 23.2624336,40.0810811 19.8929231,35.7349099 C16.5234126,31.3887387 15.5965315,27.5591216 16.5208392,23.8842342 C16.5208392,23.8842342 8.2965035,33.2028153 10.1502657,40.8618243 L10.1502657,40.8618243 C12.9256503,39.9894144 15.9483077,40.9238739 17.7584336,43.2140766 L19.6284196,46.710473 L19.6284196,46.710473 Z" id="Shape" fill="#EF5252"></path>
            <path d="M3.35328671,50 L26.133035,50 C27.972028,50 29.4628252,48.4995495 29.4628252,46.6486486 L29.4628252,46.6486486 C29.4628252,44.7977477 27.972028,43.2972973 26.133035,43.2972973 L3.35328671,43.2972973 L3.35328671,50 L3.35328671,50 Z" id="Shape" fill="#666666"></path>
            <path d="M3.35328671,43.2972973 L3.35328671,43.2972973 C1.51429371,43.2972973 0.0234965035,44.7977477 0.0234965035,46.6486486 L0.0234965035,46.6486486 C0.0234965035,48.4995495 1.51429371,50 3.35328671,50 L3.35328671,50 C5.19227972,50 6.68307692,48.4995495 6.68307692,46.6486486 L6.68307692,46.6486486 C6.68307692,44.7977477 5.19227972,43.2972973 3.35328671,43.2972973 L3.35328671,43.2972973 Z" id="Shape" fill="#999999"></path>
            <polygon id="Shape" fill="#999999" points="9.50321678 43.2975225 6.18495105 37.7502252 6.11076923 37.6279279 11.8156084 34.1697072 11.8961678 34.3037162 15.7275524 40.7086712 13.379021 43.297973"></polygon>
            <polygon id="Shape" fill="#999999" points="21.3743217 43.2972973 25.2618741 40.1391892 20.4408392 35.5128378 13.379021 43.297973"></polygon>
            <path d="M11.8157203,34.1693694 L11.8157203,34.1693694 C10.8671329,32.5836712 8.82103497,32.0722973 7.24553846,33.0269144 L7.24553846,33.0269144 C5.67004196,33.9816441 5.16195804,36.040991 6.11043357,37.6266892 L6.11043357,37.6266892 C7.05902098,39.2123874 9.10511888,39.7237613 10.6806154,38.7691441 L10.6806154,38.7691441 C12.2561119,37.8144144 12.7643077,35.7550676 11.8157203,34.1693694 L11.8157203,34.1693694 Z" id="Shape" fill="#666666"></path>
            <path d="M25.3587692,40.0324324 L25.3587692,40.0324324 C26.5987133,38.6656532 26.503049,36.5458333 25.1450629,35.2978604 L25.1450629,35.2978604 C23.7870769,34.0498874 21.6808951,34.1461712 20.440951,35.5129505 L20.440951,35.5129505 C19.201007,36.8797297 19.2966713,38.9995495 20.6546573,40.2475225 L20.6546573,40.2475225 C22.0126434,41.4954955 24.1188252,41.3992117 25.3587692,40.0324324 L25.3587692,40.0324324 Z" id="Shape" fill="#666666"></path>
            <polygon id="Shape" fill="#666666" points="20.440951 35.5128378 13.379021 43.297973 15.8203077 43.297973 22.4440839 36.5789414"></polygon>
            <polygon id="Shape" fill="#666666" points="6.11054545 37.6268018 9.50321678 43.2975225 11.2011189 43.2977477 8.1506014 38.2456081"></polygon>
            <path d="M3.36839161,47.6315315 L3.36839161,50 L26.1481399,50 C27.6472168,50 28.9146853,49.0028153 29.332028,47.6315315 L3.36839161,47.6315315 L3.36839161,47.6315315 Z" id="Shape" fill="#999999"></path>
        </g>
    </g>
</svg>