
<svg width="50px" height="50px" viewBox="0 0 50 50" version="1.1" xmlns="http://www.w3.org/2000/svg" xmlns:xlink="http://www.w3.org/1999/xlink">
    <!-- Generator: Sketch 3.8.1 (29687) - http://www.bohemiancoding.com/sketch -->
    <desc>Created with Sketch.</desc>
    <defs></defs>
    <g id="spicy" stroke="none" stroke-width="1" fill="none" fill-rule="evenodd">
        <g id="Group">
            <path d="M43.302,7.914 C43.053,7.914 42.803,7.821 42.61,7.635 C42.212,7.253 42.199,6.619 42.582,6.221 C43.62,5.141 44.172,3.931 43.989,3.139 C43.871,2.63 43.413,2.227 42.627,1.94 C42.108,1.751 41.842,1.176 42.031,0.657 C42.22,0.138 42.796,-0.126 43.314,0.061 C45.133,0.726 45.745,1.857 45.937,2.688 C46.279,4.166 45.563,6.004 44.023,7.608 C43.826,7.811 43.565,7.914 43.302,7.914 L43.302,7.914 Z" id="Shape" fill="#659C35"></path>
            <path d="M32.238,15.303 C32.101,15.77 31.966,16.266 31.838,16.829 C28.338,32.246 15.466,40.379 0.951,48.418 C0.287,48.786 0.196,49.921 0.848,49.823 C10.2,48.417 34.61,50.788 46.549,22.81 C46.549,22.81 52.712,9.954 44.837,7.829 C44.838,7.829 33.95,2.714 32.238,15.303 L32.238,15.303 Z" id="Shape" fill="#D13834"></path>
            <path d="M48.974,17.608 C49.866,13.573 49.834,8.74 45.135,7.472 C45.135,7.472 34.5,2.485 31.945,13.787 C34.435,13.598 37.772,13.097 38.706,11.758 C38.706,11.758 40.916,13.968 39.778,17.116 C39.778,17.116 44.466,16.58 44.064,12.83 C44.064,12.83 46.944,15.308 46.207,19.259 C46.206,19.259 47.596,18.838 48.974,17.608 L48.974,17.608 Z" id="Shape" fill="#88C057"></path>
            <path d="M14.928,45.996 C14.505,45.996 14.113,45.726 13.976,45.303 C13.807,44.778 14.095,44.214 14.621,44.044 C36.277,37.066 38.666,22.251 38.688,22.103 C38.767,21.556 39.275,21.166 39.821,21.257 C40.368,21.336 40.746,21.843 40.667,22.39 C40.571,23.048 38.065,38.591 15.234,45.949 C15.132,45.98 15.029,45.996 14.928,45.996 L14.928,45.996 Z" id="Shape" fill="#F75B57"></path>
        </g>
    </g>
</svg>