
<svg width="50px" height="51px" viewBox="0 0 50 51" version="1.1" xmlns="http://www.w3.org/2000/svg" xmlns:xlink="http://www.w3.org/1999/xlink">
    <!-- Generator: Sketch 3.8.1 (29687) - http://www.bohemiancoding.com/sketch -->
    <desc>Created with Sketch.</desc>
    <defs></defs>
    <g id="sweet" stroke="none" stroke-width="1" fill="none" fill-rule="evenodd">
        <g id="Group">
            <path d="M28.925,0 L28.925,42 C40.523,42 49.925,32.598 49.925,21 C49.925,9.402 40.523,0 28.925,0 L28.925,0 Z" id="Shape" fill="#F9D70B"></path>
            <path d="M8.075,29.377 C8.075,31.586 6.284,33.377 4.075,33.377 C1.866,33.377 0.075,31.586 0.075,29.377 C0.075,27.789 2.143,23.659 3.305,21.464 C3.632,20.846 4.518,20.846 4.845,21.464 C6.007,23.659 8.075,27.788 8.075,29.377 L8.075,29.377 Z" id="Shape" fill="#F1B501"></path>
            <path d="M22.075,46 C22.075,48.209 20.284,50 18.075,50 C15.866,50 14.075,48.209 14.075,46 C14.075,44.412 16.143,40.282 17.305,38.087 C17.632,37.469 18.518,37.469 18.845,38.087 C20.007,40.282 22.075,44.412 22.075,46 L22.075,46 Z" id="Shape" fill="#F9DA49"></path>
            <path d="M28.925,7.776 C20.735,2.054 9.385,2.83 2.075,10.14 L28.924,36.989 L28.924,7.776 L28.925,7.776 Z" id="Shape" fill="#F1B501"></path>
            <path d="M28.925,12.949 C22.284,6.33 11.536,6.336 4.904,12.968 L28.925,36.989 L28.925,12.949 L28.925,12.949 Z" id="Shape" fill="#F9DA49"></path>
            <path d="M28.925,12.949 C28.693,12.717 28.444,12.513 28.202,12.298 L17.925,22.575 L17.925,8.037 C17.793,8.029 17.661,8.023 17.529,8.018 L16.311,8.018 C16.182,8.023 16.054,8.029 15.925,8.037 L15.925,23.989 L16.925,24.988 L16.925,24.988 L16.925,24.988 L17.925,25.988 L28.895,25.988 L28.895,23.988 L19.339,23.988 L28.924,14.402 L28.924,12.949 L28.925,12.949 Z" id="Shape" fill="#F9EA80"></path>
            <path d="M28.925,0 L28.925,42 C40.523,42 49.925,32.598 49.925,21 C49.925,9.402 40.523,0 28.925,0 L28.925,0 Z" id="Shape" fill="#F1B501"></path>
            <path d="M28.925,4 L28.925,38 C38.314,38 45.925,30.389 45.925,21 C45.925,11.611 38.313,4 28.925,4 L28.925,4 Z" id="Shape" fill="#F9EA80"></path>
            <path d="M41.619,9.72 C41.533,9.623 41.446,9.527 41.358,9.432 L40.493,8.567 C40.398,8.479 40.302,8.392 40.206,8.306 L28.926,19.586 L28.926,21 L28.926,21 L28.926,21 L28.926,22.413 L40.206,33.693 C40.304,33.606 40.4,33.519 40.496,33.43 L41.357,32.569 C41.446,32.473 41.534,32.377 41.621,32.279 L31.339,22 L45.874,22 C45.893,21.667 45.924,21.338 45.924,21 C45.924,20.662 45.893,20.333 45.874,20 L31.339,20 L41.619,9.72 L41.619,9.72 Z" id="Shape" fill="#F9DA49"></path>
        </g>
    </g>
</svg>